<svg xmlns="http://www.w3.org/2000/svg" xmlns:xlink="http://www.w3.org/1999/xlink" preserveAspectRatio="xMidYMid meet" version="1.0" viewBox="0.0 0.0 469.1 465.7" zoomAndPan="magnify" style="fill: rgb(0, 0, 0);" role="img" aria-label="Contemporary Circular Vectors">
    <g id="__id11_s23y4g1is">
        <path d="M469.1,232.9c0-15.2-1.5-30.1-4.2-44.5l-99.7,0l80.2-58.3c-12.2-25-28.7-47.5-48.6-66.5l-80.4,58.4 l30.8-94.8C323.4,14,297,5,269.1,0.9l-31.2,95.9L206.5,0c-28.1,3.3-54.7,11.7-78.8,24l32,98.5L74.9,61c-20.2,18.7-37,41-49.6,65.8 l86.3,62.7L4,189.5c-2.6,14.1-4,28.6-4,43.4c0,13.3,1.1,26.3,3.2,39l108.7,0l-88.1,64c12.2,25,28.8,47.5,48.7,66.5l88.2-64.1 l-33.5,103.1c24.1,12.5,50.7,20.8,78.8,24.3l33.2-102.2l32.8,101c27.9-4.5,54.1-13.9,77.8-27.2l-32.4-99.6l83.5,60.6 c19.4-19.5,35.4-42.4,47-67.7l-82.3-59.8l100.5,0C468,258.4,469.1,245.8,469.1,232.9z M234.5,300.6c-37.4,0-67.7-30.3-67.7-67.7 c0-37.4,30.3-67.7,67.7-67.7s67.7,30.3,67.7,67.7C302.2,270.3,271.9,300.6,234.5,300.6z" style="fill: rgb(245, 223, 4);"></path>
    </g>
</svg>